PathFileType	4	(X/Y/Z)	s04c0403.trc
DataRate	CameraRate	NumFrames	NumMarkers	Units	OrigDataRate	OrigDataStartFrame	OrigNumFrames
200	200	4	50	mm	200	0	2000
Frame#	Time	racr			lacr			c7			jug			rlel			rdr			llel			ldr			s2			lic			ric			lasi			rasi			rpsi			lpsi			rgt			lgt			rth1			rth2			rth3			rth4			rlfc			rmfc			rsh1			rsh2			rsh3			rsh4			rlmal			rmmal			rcal			rtoe			rmt5			lth1			lth2			lth4			lth3			llfc			lmfc			lsh1			lsh2			lsh3			lsh4			llmal			lmmal			lcal			ltoe			lmt5			SBIKE			LBIKE			RBIKE			
		X1	Y1	Z1	X2	Y2	Z2	X3	Y3	Z3	X4	Y4	Z4	X5	Y5	Z5	X6	Y6	Z6	X7	Y7	Z7	X8	Y8	Z8	X9	Y9	Z9	X10	Y10	Z10	X11	Y11	Z11	X12	Y12	Z12	X13	Y13	Z13	X14	Y14	Z14	X15	Y15	Z15	X16	Y16	Z16	X17	Y17	Z17	X18	Y18	Z18	X19	Y19	Z19	X20	Y20	Z20	X21	Y21	Z21	X22	Y22	Z22	X23	Y23	Z23	X24	Y24	Z24	X25	Y25	Z25	X26	Y26	Z26	X27	Y27	Z27	X28	Y28	Z28	X29	Y29	Z29	X30	Y30	Z30	X31	Y31	Z31	X32	Y32	Z32	X33	Y33	Z33	X34	Y34	Z34	X35	Y35	Z35	X36	Y36	Z36	X37	Y37	Z37	X38	Y38	Z38	X39	Y39	Z39	X40	Y40	Z40	X41	Y41	Z41	X42	Y42	Z42	X43	Y43	Z43	X44	Y44	Z44	X45	Y45	Z45	X46	Y46	Z46	X47	Y47	Z47	X48	Y48	Z48	X49	Y49	Z49	X50	Y50	Z50	
0	0.0000	476.227989	1482.463330	-134.960311	470.742277	1468.461216	-431.785654	442.989382	1529.490950	-291.610056	468.866799	1383.195363	-284.361367	505.366939	1168.468173	-35.643769	698.206258	943.009577	-90.904585	504.211207	1181.188633	-530.344865	688.588249	935.752492	-486.957378	-51.838901	1184.176619	-292.405960	111.241995	1181.970439	-436.511461	110.292635	1166.133475	-123.854820	141.848656	1134.634016	-393.612301	150.065356	1111.560552	-167.937607	-17.332630	1217.349288	-243.671762	-19.927886	1226.420836	-320.266267	49.839381	1107.915205	-109.976120	66.835711	1123.435013	-484.938865	131.766699	962.351274	-91.412702	189.234502	896.946069	-102.474505	210.166820	813.801598	-107.272350	218.144540	913.503031	-120.685440	260.038526	677.772016	-134.694194	233.754171	662.493923	-245.734480	190.330875	571.904699	-109.149431	165.803224	485.536785	-122.923291	100.045050	428.101239	-127.917816	191.917152	472.887649	-149.121126	29.661610	295.246769	-136.673452	51.059556	297.543046	-221.902487	-46.917031	277.435147	-175.204297	241.254840	194.089054	-161.535744	170.170126	187.382688	-106.586794	122.121384	1070.287027	-490.468300	206.994341	1056.634866	-496.750701	222.424440	1086.119356	-480.448377	275.659278	1000.871184	-510.044947	411.524597	910.935934	-492.499680	450.356717	894.567470	-385.314681	373.906605	800.492935	-507.425725	354.075942	719.102113	-481.143722	293.782802	654.452352	-471.725433	380.137602	711.558915	-452.927857	218.198596	531.010429	-450.774414	221.624765	539.418998	-362.280372	138.980089	509.399394	-402.443606	438.503057	492.832410	-423.474864	365.145940	454.464353	-480.562654	-185.163791	930.139733	-286.795823	-17.548559	79.299150	-485.819147	-17.581509	79.272217	-84.801747	
1	0.0050	476.255416	1482.451136	-134.914642	470.716410	1468.454214	-431.753093	442.978478	1529.517935	-291.573734	468.919732	1383.184243	-284.326472	505.383520	1168.474913	-35.615037	698.216327	942.982556	-90.916703	504.186964	1181.181372	-530.322334	688.599841	935.765072	-486.943483	-51.819047	1184.171271	-292.386326	111.244232	1181.980413	-436.478260	110.340082	1166.087033	-123.849875	141.893256	1134.699644	-393.758799	150.125335	1111.503764	-167.948405	-17.286176	1217.312042	-243.654958	-19.912722	1226.432690	-320.238485	49.874607	1107.872139	-109.974238	66.820000	1123.477826	-484.932447	131.773055	962.331518	-91.397867	189.242144	896.912711	-102.512659	210.162918	813.774540	-107.305093	218.143215	913.454521	-120.693394	260.010909	677.728659	-134.713710	233.721695	662.454332	-245.755261	190.331884	571.858276	-109.161048	165.800542	485.494224	-122.935889	100.031860	428.016925	-127.919539	191.914739	472.823455	-149.142346	29.671156	295.203479	-136.683573	51.083985	297.487173	-221.917780	-46.887137	277.359641	-175.204722	241.297714	194.081505	-161.545468	170.194195	187.384102	-106.578179	122.121887	1070.320192	-490.462112	206.981860	1056.662049	-496.771403	222.423688	1086.122914	-480.447029	275.654143	1000.885238	-510.061718	411.481717	910.947520	-492.549643	450.434086	894.555616	-385.655477	373.866863	800.517346	-507.461759	354.023592	719.102864	-481.169134	293.751252	654.485438	-471.765310	380.108050	711.594415	-452.951919	218.146514	531.066680	-450.789569	221.563352	539.451230	-362.279989	138.938505	509.432242	-402.447304	438.442791	492.878069	-423.487890	365.111604	454.491714	-480.552478	-185.159028	930.134755	-286.816233	-17.553586	79.323522	-485.817712	-17.575520	79.296622	-84.828182	
2	0.0100	476.287543	1482.474205	-134.887945	470.738774	1468.464502	-431.750602	442.978254	1529.552083	-291.558132	468.959037	1383.206198	-284.309852	505.406566	1168.469131	-35.591498	698.213219	942.988684	-90.910431	504.192476	1181.183180	-530.297210	688.613804	935.777258	-486.936096	-51.816154	1184.171519	-292.350294	111.232296	1181.998370	-436.432623	110.366795	1166.052491	-123.831727	141.908364	1134.709595	-393.727293	150.115358	1111.493051	-167.955213	-17.288609	1217.316080	-243.600621	-19.884451	1226.426935	-320.212989	49.898479	1107.854414	-109.967120	66.821490	1123.491193	-484.910017	131.799632	962.301605	-91.393823	189.247944	896.856269	-102.515985	210.143684	813.733475	-107.326639	218.151381	913.439610	-120.712647	260.009247	677.702132	-134.734305	233.691993	662.424041	-245.765535	190.326583	571.827071	-109.175617	165.819181	485.431899	-122.943159	100.040556	427.979061	-127.936862	191.918611	472.792867	-149.149784	29.688607	295.143548	-136.685427	51.087630	297.445235	-221.904873	-46.869511	277.298128	-175.203903	241.337947	194.057164	-161.540136	170.231426	187.359242	-106.576247	122.106137	1070.343579	-490.447977	206.972869	1056.671412	-496.756179	222.406662	1086.160181	-480.435458	275.640881	1000.909958	-510.084012	411.461766	910.952575	-492.572782	450.425115	894.535546	-385.708340	373.855586	800.519521	-507.485758	353.998808	719.120791	-481.192792	293.703300	654.500896	-471.777558	380.075267	711.603517	-452.982638	218.102886	531.100041	-450.800357	221.536151	539.491279	-362.288214	138.899128	509.457084	-402.438256	438.406111	492.908381	-423.480616	365.070743	454.524328	-480.568774	-185.159154	930.145133	-286.802661	-17.565057	79.311171	-485.808744	-17.576823	79.291456	-84.825988	
3	0.0150	476.299270	1482.481407	-134.825363	470.761104	1468.477709	-431.766715	442.976707	1529.555407	-291.565032	469.018094	1383.221654	-284.268556	505.426821	1168.472995	-35.576698	698.223728	942.978891	-90.907992	504.342673	1181.011599	-529.792754	688.608073	935.781389	-486.941997	-51.916381	1184.190508	-292.452634	111.238908	1182.023215	-436.383175	110.519594	1165.951376	-123.816846	141.926789	1134.703062	-393.705128	150.103532	1111.644254	-167.895690	-17.291409	1217.320333	-243.548337	-19.870828	1226.424906	-320.182772	49.902166	1107.831464	-109.940383	66.817150	1123.527855	-484.880190	132.038813	962.631368	-90.808803	189.728376	896.366637	-102.333253	210.126603	813.686831	-107.345462	218.146823	913.420209	-120.707575	259.989991	677.674758	-134.763419	233.644306	662.385418	-245.782472	190.331014	571.796929	-109.188391	164.925234	484.715884	-123.858427	100.067289	427.929973	-127.935744	191.954551	472.731148	-149.150699	29.686817	295.084489	-136.529486	51.060658	297.419117	-221.902248	-46.795939	277.318582	-175.263779	241.376220	194.043131	-161.557681	170.276414	187.324058	-106.589458	122.247250	1070.662366	-490.711768	206.953273	1056.701307	-496.774934	222.375198	1086.380418	-480.675356	275.614543	1000.922883	-510.120838	411.414950	911.029998	-492.579528	450.423278	894.546100	-385.757863	373.818625	800.524960	-507.525494	354.005457	719.118521	-481.345660	293.608095	654.494632	-471.838543	380.107237	711.654363	-453.201412	218.074182	531.016722	-450.630886	221.326882	539.593502	-361.993881	138.864142	509.489970	-402.452563	438.380663	492.959232	-423.540337	365.050821	454.539238	-480.567529	-185.224849	930.139361	-287.086911	-17.552556	79.325503	-485.814564	-17.584866	79.274799	-84.824994	
